<svg xmlns="http://www.w3.org/2000/svg" viewBox="0 0 512 512"><defs><linearGradient id="bg" x1="0" y1="0" x2="1" y2="1"><stop stop-color="#080B18"/><stop offset="1" stop-color="#16102F"/></linearGradient><linearGradient id="neon" x1="0" y1="0" x2="1" y2="1"><stop stop-color="#20E6FF"/><stop offset="1" stop-color="#7B4DFF"/></linearGradient></defs><rect width="512" height="512" rx="96" fill="url(#bg)"/><circle cx="256" cy="256" r="190" fill="none" stroke="#20E6FF" stroke-width="18" opacity=".8"/><path d="M120 220a150 150 0 0 1 272 0" fill="none" stroke="#52FF72" stroke-width="18" stroke-linecap="round"/><path d="M392 220a150 150 0 0 1-20 42" fill="none" stroke="#FF3D71" stroke-width="18" stroke-linecap="round"/><path d="M330 190H235c-48 0-82 28-82 66s34 66 82 66h45v-44h-43c-20 0-35-8-35-22s15-22 35-22h55z" fill="#EAFBFF"/><path d="M270 226h62l-25 34h42l-78 82 20-52h-46z" fill="url(#neon)"/><rect x="346" y="310" width="56" height="56" rx="10" fill="#7B4DFF"/><text x="374" y="348" text-anchor="middle" font-family="Arial,sans-serif" font-size="27" font-weight="700" fill="white">AI</text></svg>